<svg xmlns="http://www.w3.org/2000/svg" width="2400" height="1350" viewBox="0 0 2400 1350" role="img" aria-label="Capitol building with blue digital data stream">
  <defs>
    <linearGradient id="g0" x1="0" y1="0" x2="1" y2="1">
      <stop offset="0" stop-color="#05070c"/>
      <stop offset="1" stop-color="#0b1020"/>
    </linearGradient>
    <radialGradient id="goldGlow" cx="30%" cy="24%" r="70%">
      <stop offset="0" stop-color="rgba(212,175,55,.26)"/>
      <stop offset="0.55" stop-color="rgba(212,175,55,.08)"/>
      <stop offset="1" stop-color="rgba(212,175,55,0)"/>
    </radialGradient>
    <radialGradient id="blueGlow" cx="80%" cy="18%" r="70%">
      <stop offset="0" stop-color="rgba(255,255,255,.08)"/>
      <stop offset="1" stop-color="rgba(120,180,255,0)"/>
    </radialGradient>
    <filter id="blur" x="-20%" y="-20%" width="140%" height="140%">
      <feGaussianBlur stdDeviation="8"/>
    </filter>
  </defs>

  <rect width="2400" height="1350" fill="url(#g0)"/>
  <rect width="2400" height="1350" fill="url(#goldGlow)"/>
  <rect width="2400" height="1350" fill="url(#blueGlow)"/>

  <g opacity="0.8"><path d="M 228.1 1170.9 Q 342.5 718.0 1185.6 56.7" stroke="rgba(243,210,122,0.120)" stroke-width="1.45" fill="none"/><path d="M 1094.4 1085.0 Q 872.7 860.6 896.6 659.0" stroke="rgba(243,210,122,0.129)" stroke-width="1.73" fill="none"/><path d="M 2516.0 404.6 Q 1931.1 730.3 973.0 1374.3" stroke="rgba(243,210,122,0.071)" stroke-width="1.68" fill="none"/><path d="M 940.4 1271.9 Q 302.5 1299.7 31.6 1201.5" stroke="rgba(243,210,122,0.129)" stroke-width="1.77" fill="none"/><path d="M 2295.9 392.9 Q 2057.2 470.6 1809.5 329.9" stroke="rgba(243,210,122,0.113)" stroke-width="2.12" fill="none"/><path d="M 791.5 1358.4 Q 806.7 1040.5 931.4 449.3" stroke="rgba(243,210,122,0.126)" stroke-width="1.73" fill="none"/><path d="M 826.7 53.6 Q 618.0 238.1 123.4 404.3" stroke="rgba(243,210,122,0.090)" stroke-width="1.26" fill="none"/><path d="M 1419.4 1121.6 Q 2037.5 607.0 1906.0 246.1" stroke="rgba(243,210,122,0.099)" stroke-width="1.96" fill="none"/><path d="M 2106.4 521.0 Q 2069.3 185.4 1628.3 144.9" stroke="rgba(243,210,122,0.125)" stroke-width="1.74" fill="none"/><path d="M 1674.4 218.0 Q 1153.2 315.2 242.8 33.7" stroke="rgba(243,210,122,0.115)" stroke-width="1.81" fill="none"/><path d="M -80.4 37.4 Q 440.4 614.1 1417.0 1271.4" stroke="rgba(243,210,122,0.090)" stroke-width="1.48" fill="none"/><path d="M 2041.7 1012.1 Q 1767.1 579.0 1997.7 430.6" stroke="rgba(243,210,122,0.084)" stroke-width="1.69" fill="none"/><path d="M 796.8 1091.9 Q 1588.5 998.4 2284.5 755.1" stroke="rgba(243,210,122,0.122)" stroke-width="1.87" fill="none"/><path d="M 175.6 304.1 Q 247.0 292.9 137.3 691.1" stroke="rgba(243,210,122,0.066)" stroke-width="1.05" fill="none"/></g>
  <g><circle cx="1528.5" cy="1090.3" r="3.5" fill="rgba(212,175,55,0.100)"/><circle cx="988.7" cy="748.7" r="3.4" fill="rgba(212,175,55,0.129)"/><circle cx="1976.7" cy="950.4" r="2.6" fill="rgba(212,175,55,0.135)"/><circle cx="1750.3" cy="393.9" r="4.4" fill="rgba(212,175,55,0.102)"/><circle cx="420.4" cy="676.5" r="3.0" fill="rgba(212,175,55,0.066)"/><circle cx="2052.2" cy="1030.0" r="3.8" fill="rgba(212,175,55,0.077)"/><circle cx="1216.6" cy="51.0" r="3.8" fill="rgba(212,175,55,0.081)"/><circle cx="1996.4" cy="1321.4" r="4.4" fill="rgba(212,175,55,0.086)"/><circle cx="875.1" cy="1216.9" r="3.0" fill="rgba(212,175,55,0.115)"/><circle cx="986.0" cy="1109.6" r="4.1" fill="rgba(212,175,55,0.121)"/><circle cx="972.3" cy="548.4" r="2.5" fill="rgba(212,175,55,0.083)"/><circle cx="1251.6" cy="506.1" r="5.7" fill="rgba(212,175,55,0.069)"/><circle cx="391.0" cy="815.1" r="2.8" fill="rgba(212,175,55,0.106)"/><circle cx="1532.5" cy="991.1" r="3.4" fill="rgba(212,175,55,0.075)"/><circle cx="2091.0" cy="560.3" r="6.0" fill="rgba(212,175,55,0.083)"/><circle cx="2240.5" cy="709.7" r="3.5" fill="rgba(212,175,55,0.072)"/><circle cx="2140.1" cy="34.6" r="4.0" fill="rgba(212,175,55,0.103)"/><circle cx="157.6" cy="293.0" r="2.7" fill="rgba(212,175,55,0.133)"/><circle cx="740.8" cy="540.5" r="5.5" fill="rgba(212,175,55,0.130)"/><circle cx="2386.3" cy="1167.1" r="4.2" fill="rgba(212,175,55,0.110)"/><circle cx="1620.1" cy="1079.1" r="4.6" fill="rgba(212,175,55,0.053)"/><circle cx="1176.9" cy="930.7" r="6.0" fill="rgba(212,175,55,0.077)"/><circle cx="785.8" cy="866.7" r="4.8" fill="rgba(212,175,55,0.054)"/><circle cx="208.0" cy="407.1" r="4.8" fill="rgba(212,175,55,0.104)"/><circle cx="717.3" cy="1023.4" r="3.2" fill="rgba(212,175,55,0.051)"/><circle cx="409.5" cy="1297.3" r="4.9" fill="rgba(212,175,55,0.123)"/><circle cx="1248.2" cy="322.3" r="5.6" fill="rgba(212,175,55,0.103)"/><circle cx="1003.8" cy="876.9" r="3.0" fill="rgba(212,175,55,0.110)"/><circle cx="1683.8" cy="1320.6" r="5.3" fill="rgba(212,175,55,0.121)"/><circle cx="57.9" cy="822.3" r="4.8" fill="rgba(212,175,55,0.127)"/><circle cx="303.0" cy="272.0" r="2.8" fill="rgba(212,175,55,0.078)"/><circle cx="1977.2" cy="565.3" r="5.1" fill="rgba(212,175,55,0.111)"/><circle cx="2226.7" cy="1172.7" r="3.7" fill="rgba(212,175,55,0.112)"/><circle cx="988.2" cy="892.5" r="3.4" fill="rgba(212,175,55,0.077)"/><circle cx="912.6" cy="277.8" r="3.3" fill="rgba(212,175,55,0.057)"/><circle cx="2047.7" cy="24.7" r="4.8" fill="rgba(212,175,55,0.075)"/><circle cx="2286.5" cy="185.9" r="2.5" fill="rgba(212,175,55,0.071)"/><circle cx="1265.6" cy="65.7" r="2.7" fill="rgba(212,175,55,0.131)"/></g>

  <g filter="url(#blur)" opacity="0.9">
    <circle cx="1752.0" cy="621.0" r="210" fill="rgba(255,255,255,.04)"/>
  </g>

  <g><circle cx="1752.0" cy="621.0" r="160" fill="none" stroke="rgba(212,175,55,0.180)" stroke-width="1.2"/><circle cx="1752.0" cy="621.0" r="215" fill="none" stroke="rgba(212,175,55,0.150)" stroke-width="1.2"/><circle cx="1752.0" cy="621.0" r="270" fill="none" stroke="rgba(212,175,55,0.120)" stroke-width="1.2"/><circle cx="1752.0" cy="621.0" r="325" fill="none" stroke="rgba(212,175,55,0.090)" stroke-width="1.2"/></g>

  <g>
    <rect x="1562.0" y="555.0" width="380" height="132" rx="26" fill="rgba(255,255,255,.05)" stroke="rgba(255,255,255,.10)"/>
    <text x="1752.0" y="613.0" text-anchor="middle" font-family="ui-sans-serif,system-ui" font-size="50" fill="rgba(245,247,255,.92)" letter-spacing="2">W3</text>
    <text x="1752.0" y="655.0" text-anchor="middle" font-family="ui-sans-serif,system-ui" font-size="22" fill="rgba(245,247,255,.60)" letter-spacing="1">w3.democrat</text>
  </g>

  <g opacity="0.9">
    <circle cx="432.0" cy="1053.0" r="280" fill="rgba(212,175,55,.06)"/>
    <circle cx="432.0" cy="1053.0" r="279" fill="none" stroke="rgba(255,255,255,.06)"/>
  </g>
</svg>